<svg width="24" height="18" viewBox="0 0 24 18" fill="none" xmlns="http://www.w3.org/2000/svg">
<path d="M23.9821 15.8249C23.8321 14.9099 22.9171 14.3699 21.7456 13.6949C20.5741 13.0049 19.1041 12.1499 18.1141 10.7549C17.3941 9.74994 17.0326 8.18994 16.7341 6.92994C16.5541 6.13494 16.3891 5.44494 16.1641 4.94994C15.9541 4.42494 15.4441 4.07994 14.8576 4.07994C14.5426 4.09494 12.9361 4.10994 11.8561 3.23994C11.1361 2.65494 10.8361 1.85994 10.5661 1.09494L10.4911 0.884944C10.3411 0.479944 10.0411 0.194944 9.65105 0.0599439C9.25955 -0.0600561 8.79455 -5.58943e-05 8.40455 0.254944C6.57305 1.40994 5.16305 2.53494 3.45155 4.90494C2.79155 5.86494 2.85155 6.83994 3.63155 7.60494L13.8676 17.0099C14.8876 17.8199 16.0891 17.9999 17.9341 17.9999H18.1741C18.7891 17.9849 19.2991 17.9999 19.8391 17.9999H20.7406C21.9106 17.9999 22.8271 17.9999 23.4871 17.2499C23.8921 16.7849 24.0571 16.3049 23.9821 15.8249ZM13.7176 6.98994C13.7176 6.58494 14.0476 6.23994 14.4676 6.23994C14.8726 6.23994 15.2176 6.58494 15.2176 6.98994C15.2176 7.40994 14.8726 7.73994 14.4676 7.73994C14.0476 7.73994 13.7176 7.40994 13.7176 6.98994ZM14.3326 9.23994C14.3326 8.83494 14.6626 8.48994 15.0826 8.48994C15.4876 8.48994 15.8326 8.83494 15.8326 9.23994C15.8326 9.65994 15.4876 9.98994 15.0826 9.98994C14.6626 9.98994 14.3326 9.65994 14.3326 9.23994ZM15.9691 12.2399C15.5491 12.2399 15.2191 11.9099 15.2191 11.4899C15.2191 11.0849 15.5491 10.7399 15.9691 10.7399C16.3741 10.7399 16.7191 11.0849 16.7191 11.4899C16.7191 11.9099 16.3741 12.2399 15.9691 12.2399Z" fill="black"/>
<path d="M9.753 17.9415H0.75C0.3345 17.9415 0 17.6055 0 17.1915C0 16.7775 0.336 16.5 0.75 16.5H9.7515C10.167 16.5 10.5015 16.776 10.5015 17.19C10.5015 17.604 10.1685 17.9415 9.753 17.9415Z" fill="black"/>
<path d="M6.753 14.9415H0.75C0.3345 14.9415 0 14.6055 0 14.1915C0 13.7775 0.336 13.5 0.75 13.5H6.753C7.167 13.5 7.503 13.776 7.503 14.19C7.503 14.604 7.1685 14.9415 6.753 14.9415Z" fill="black"/>
<path d="M3.75 11.9415H0.75C0.3345 11.9415 0 11.6055 0 11.1915C0 10.7775 0.336 10.5 0.75 10.5H3.75C4.164 10.5 4.5 10.7775 4.5 11.1915C4.5 11.6055 4.164 11.9415 3.75 11.9415Z" fill="black"/>
</svg>
