<svg width="22" height="18" viewBox="0 0 22 18" fill="none" xmlns="http://www.w3.org/2000/svg">
<path d="M21.9821 15.8249C21.8321 14.9099 20.9171 14.3699 19.7456 13.6949C18.5741 13.0049 17.1041 12.1499 16.1141 10.7549C15.3941 9.74994 15.0326 8.18994 14.7341 6.92994C14.5541 6.13494 14.3891 5.44494 14.1641 4.94994C13.9541 4.42494 13.4441 4.07994 12.8576 4.07994C12.5426 4.09494 10.9361 4.10994 9.85605 3.23994C9.13605 2.65494 8.83605 1.85994 8.56605 1.09494L8.49105 0.884944C8.34105 0.479944 8.04105 0.194944 7.65105 0.0599439C7.25955 -0.0600561 6.79455 -5.58943e-05 6.40455 0.254944C4.57305 1.40994 3.16305 2.53494 1.45155 4.90494C0.791553 5.86494 0.851553 6.83994 1.63155 7.60494L11.8676 17.0099C12.8876 17.8199 14.0891 17.9999 15.9341 17.9999H16.1741C16.7891 17.9849 17.2991 17.9999 17.8391 17.9999H18.7406C19.9106 17.9999 20.8271 17.9999 21.4871 17.2499C21.8921 16.7849 22.0571 16.3049 21.9821 15.8249ZM11.7176 6.98994C11.7176 6.58494 12.0476 6.23994 12.4676 6.23994C12.8726 6.23994 13.2176 6.58494 13.2176 6.98994C13.2176 7.40994 12.8726 7.73994 12.4676 7.73994C12.0476 7.73994 11.7176 7.40994 11.7176 6.98994ZM12.3326 9.23994C12.3326 8.83494 12.6626 8.48994 13.0826 8.48994C13.4876 8.48994 13.8326 8.83494 13.8326 9.23994C13.8326 9.65994 13.4876 9.98994 13.0826 9.98994C12.6626 9.98994 12.3326 9.65994 12.3326 9.23994ZM13.9691 12.2399C13.5491 12.2399 13.2191 11.9099 13.2191 11.4899C13.2191 11.0849 13.5491 10.7399 13.9691 10.7399C14.3741 10.7399 14.7191 11.0849 14.7191 11.4899C14.7191 11.9099 14.3741 12.2399 13.9691 12.2399Z" fill="#8E9296"/>
</svg>
