<svg width="24" height="24" viewBox="0 0 24 24" fill="none" xmlns="http://www.w3.org/2000/svg">
<path fill-rule="evenodd" clip-rule="evenodd" d="M20.997 10.9741H21C21.551 10.9741 21.999 11.4201 22 11.9711C22.008 14.6421 20.975 17.1571 19.091 19.0511C17.208 20.9451 14.7 21.9921 12.029 22.0001H12C9.33898 22.0001 6.83599 20.9681 4.94899 19.0911C3.05499 17.2081 2.00799 14.7001 1.99999 12.0291C1.99199 9.35709 3.02499 6.84309 4.90899 4.94909C6.79199 3.05509 9.29999 2.00809 11.971 2.00009C12.766 2.01209 13.576 2.09209 14.352 2.27809C14.888 2.40809 15.219 2.94809 15.089 3.48509C14.96 4.02109 14.417 4.35109 13.883 4.22309C13.262 4.07309 12.603 4.01009 11.977 4.00009C9.83998 4.00609 7.83298 4.84409 6.32698 6.35909C4.81998 7.87409 3.99398 9.88609 3.99998 12.0231C4.00599 14.1601 4.84399 16.1661 6.35898 17.6731C7.86899 19.1741 9.87099 20.0001 12 20.0001H12.023C14.16 19.9941 16.167 19.1561 17.673 17.6411C19.18 16.1251 20.006 14.1141 20 11.9771C19.999 11.4251 20.445 10.9751 20.997 10.9741ZM8.29298 11.293C8.68398 10.902 9.31598 10.902 9.70698 11.293L11.951 13.537L18.248 6.34099C18.612 5.92799 19.243 5.88399 19.659 6.24799C20.074 6.61099 20.116 7.24299 19.752 7.65899L12.752 15.659C12.57 15.867 12.31 15.99 12.033 16H12C11.735 16 11.481 15.895 11.293 15.707L8.29298 12.707C7.90198 12.316 7.90198 11.684 8.29298 11.293Z" fill="#1A1A1A"/>
</svg>
