<svg width="22" height="24" viewBox="0 0 22 24" fill="none" xmlns="http://www.w3.org/2000/svg">
<path d="M20.75 0H16.766H5.1365H1.25C0.836 0 0.5 0.336 0.5 0.75C0.5 3.909 2.8145 9.8175 6.0545 10.437C6.866 12.8475 7.9565 14.895 9.275 15.873C8.5475 18.7305 5.894 19.1205 4.6955 19.5C4.343 19.611 4.1225 19.9635 4.1795 20.3295C4.2365 20.6955 4.55 20.9655 4.9205 20.9655H16.9805C17.351 20.9655 17.6645 20.6955 17.7215 20.3295C17.7785 19.9635 17.5595 19.611 17.2055 19.5C16.0085 19.1205 13.3565 18.7305 12.6305 15.8685C13.9475 14.889 15.035 12.8445 15.8465 10.4385C18.9155 9.819 21.5 4.218 21.5 0.75C21.5 0.336 21.164 0 20.75 0ZM2.045 1.5H4.406C4.4795 3.582 4.8575 6.144 5.498 8.571C3.8825 7.4085 2.318 4.0755 2.045 1.5ZM16.3985 8.592C17.042 6.1575 17.42 3.588 17.495 1.5H19.9535C19.673 4.092 18.059 7.449 16.3985 8.592Z" fill="#8E9296"/>
<path d="M16.9804 22.5H4.92041C4.50641 22.5 4.17041 22.836 4.17041 23.25C4.17041 23.664 4.50641 24 4.92041 24H16.9804C17.3944 24 17.7304 23.664 17.7304 23.25C17.7304 22.836 17.3959 22.5 16.9804 22.5Z" fill="#8E9296"/>
</svg>
