<svg width="24" height="22" viewBox="0 0 24 22" fill="none" xmlns="http://www.w3.org/2000/svg">
<path d="M23.2545 6.49854H7.5015C2.8365 6.49854 -0.838496 10.7585 0.166504 15.62C0.781504 18.545 3.2265 20.885 6.1815 21.38C6.6315 21.47 7.0665 21.5 7.5015 21.5C11.1315 21.5 14.163 18.92 14.853 15.5C14.9565 15.02 15.318 13.715 16.128 12.995C17.373 11.885 21.093 11.255 22.338 11.06C22.623 11.03 22.8495 10.835 22.938 10.565L23.958 7.47504C24.1245 6.99354 23.7645 6.49854 23.2545 6.49854ZM7.5015 18.5C5.0115 18.5 3.0015 16.49 3.0015 14C3.0015 11.5085 5.0115 9.50004 7.5015 9.50004C9.993 9.50004 12.003 11.51 12.003 14C12.003 16.49 9.993 18.5 7.5015 18.5ZM7.5015 10.9985C5.8515 10.9985 4.5015 12.3485 4.5015 13.9985C4.5015 15.6485 5.8515 16.9985 7.5015 16.9985C9.1515 16.9985 10.503 15.6485 10.503 13.9985C10.503 12.3485 9.153 10.9985 7.5015 10.9985Z" fill="black"/>
<path d="M7.50293 5.753C7.08743 5.753 6.75293 5.417 6.75293 5.003V1.25C6.75293 0.836 7.08743 0.5 7.50293 0.5C7.91693 0.5 8.25293 0.836 8.25293 1.25V5.003C8.25293 5.4185 7.91843 5.753 7.50293 5.753Z" fill="black"/>
<path d="M10.1232 5.75307C9.9732 5.75307 9.8202 5.70807 9.6882 5.61357C9.3507 5.37507 9.2727 4.90557 9.5127 4.56807L11.5602 1.69257C11.7987 1.35357 12.2667 1.27557 12.6057 1.51707C12.9432 1.75707 13.0212 2.22657 12.7812 2.56257L10.7352 5.43807C10.5882 5.64357 10.3572 5.75307 10.1232 5.75307Z" fill="black"/>
<path d="M4.78058 5.75293C4.54508 5.75293 4.31408 5.64343 4.16858 5.43793L2.12108 2.56243C1.88108 2.22343 1.96058 1.75693 2.29808 1.51693C2.63558 1.27843 3.10508 1.35493 3.34358 1.69243L5.38958 4.56793C5.63108 4.90693 5.55158 5.37493 5.21408 5.61493C5.08208 5.70793 4.93058 5.75293 4.78058 5.75293Z" fill="black"/>
</svg>
