<svg width="24" height="16" viewBox="0 0 24 16" fill="none" xmlns="http://www.w3.org/2000/svg">
<path d="M23.2545 0.498535H7.5015C2.8365 0.498535 -0.838496 4.75853 0.166504 9.62004C0.781504 12.545 3.2265 14.885 6.1815 15.38C6.6315 15.47 7.0665 15.5 7.5015 15.5C11.1315 15.5 14.163 12.92 14.853 9.50004C14.9565 9.02003 15.318 7.71503 16.128 6.99504C17.373 5.88504 21.093 5.25503 22.338 5.06003C22.623 5.03004 22.8495 4.83504 22.938 4.56503L23.958 1.47504C24.1245 0.993535 23.7645 0.498535 23.2545 0.498535ZM7.5015 12.5C5.0115 12.5 3.0015 10.49 3.0015 8.00004C3.0015 5.50853 5.0115 3.50004 7.5015 3.50004C9.993 3.50004 12.003 5.51004 12.003 8.00004C12.003 10.49 9.993 12.5 7.5015 12.5ZM7.5015 4.99854C5.8515 4.99854 4.5015 6.34853 4.5015 7.99853C4.5015 9.64853 5.8515 10.9985 7.5015 10.9985C9.1515 10.9985 10.503 9.64853 10.503 7.99853C10.503 6.34853 9.153 4.99854 7.5015 4.99854Z" fill="#FFFFFF"/>
</svg>
