<svg width="48" height="48" viewBox="0 0 48 48" fill="none" xmlns="http://www.w3.org/2000/svg">
<rect width="46" height="46" rx="8" fill="white"/>
<path fill-rule="evenodd" clip-rule="evenodd" d="M23.9831 19.3228L18.3661 24.9398L18.1021 27.8958L21.0791 27.6248L26.6791 22.0188L23.9831 19.3228ZM29.9661 18.7288L27.2711 16.0348L25.3231 17.9828L28.0181 20.6788L29.9661 18.7288ZM17.0911 29.9958C17.0601 29.9988 17.0301 29.9998 17.0001 29.9998C16.7361 29.9998 16.4811 29.8958 16.2931 29.7068C16.0831 29.4968 15.9771 29.2048 16.0041 28.9098L16.3831 24.7388C16.4251 24.2818 16.6271 23.8508 16.9521 23.5258L25.9481 14.5288C26.6501 13.8248 27.9241 13.8598 28.6641 14.5988L31.4021 17.3368H31.4031C32.1691 18.1038 32.1991 19.3208 31.4711 20.0508L22.4741 29.0478C22.1491 29.3738 21.7191 29.5748 21.2611 29.6168L17.0911 29.9958ZM17 31.9999H31C31.55 31.9999 32 32.4499 32 32.9999C32 33.5499 31.55 33.9999 31 33.9999H17C16.45 33.9999 16 33.5499 16 32.9999C16 32.4499 16.45 31.9999 17 31.9999Z" fill="#1A1A1A"/>
<mask id="mask0" mask-type="alpha" maskUnits="userSpaceOnUse" x="16" y="14" width="16" height="20">
<path fill-rule="evenodd" clip-rule="evenodd" d="M23.9831 19.3228L18.3661 24.9398L18.1021 27.8958L21.0791 27.6248L26.6791 22.0188L23.9831 19.3228ZM29.9661 18.7288L27.2711 16.0348L25.3231 17.9828L28.0181 20.6788L29.9661 18.7288ZM17.0911 29.9958C17.0601 29.9988 17.0301 29.9998 17.0001 29.9998C16.7361 29.9998 16.4811 29.8958 16.2931 29.7068C16.0831 29.4968 15.9771 29.2048 16.0041 28.9098L16.3831 24.7388C16.4251 24.2818 16.6271 23.8508 16.9521 23.5258L25.9481 14.5288C26.6501 13.8248 27.9241 13.8598 28.6641 14.5988L31.4021 17.3368H31.4031C32.1691 18.1038 32.1991 19.3208 31.4711 20.0508L22.4741 29.0478C22.1491 29.3738 21.7191 29.5748 21.2611 29.6168L17.0911 29.9958ZM17 31.9999H31C31.55 31.9999 32 32.4499 32 32.9999C32 33.5499 31.55 33.9999 31 33.9999H17C16.45 33.9999 16 33.5499 16 32.9999C16 32.4499 16.45 31.9999 17 31.9999Z" fill="white"/>
</mask>
<g mask="url(#mask0)">
<rect x="12" y="12" width="24" height="24" fill="#1A1A1A"/>
</g>
</svg>
