<svg width="24" height="25" viewBox="0 0 24 25" fill="none" xmlns="http://www.w3.org/2000/svg">
<path fill-rule="evenodd" clip-rule="evenodd" d="M11.9831 7.82287L6.36614 13.4399L6.10214 16.3959L9.07914 16.1249L14.6791 10.5189L11.9831 7.82287ZM17.9661 7.22887L15.2711 4.53487L13.3231 6.48287L16.0181 9.17887L17.9661 7.22887ZM5.09114 18.4959C5.06014 18.4989 5.03014 18.4999 5.00014 18.4999C4.73614 18.4999 4.48114 18.3959 4.29314 18.2069C4.08314 17.9969 3.97714 17.7049 4.00414 17.4099L4.38314 13.2389C4.42514 12.7819 4.62714 12.3509 4.95214 12.0259L13.9481 3.02887C14.6501 2.32487 15.9241 2.35987 16.6641 3.09887L19.4021 5.83687H19.4031C20.1691 6.60387 20.1991 7.82087 19.4711 8.55087L10.4741 17.5479C10.1491 17.8739 9.71914 18.0749 9.26114 18.1169L5.09114 18.4959ZM5 20.5H19C19.55 20.5 20 20.95 20 21.5C20 22.05 19.55 22.5 19 22.5H5C4.45 22.5 4 22.05 4 21.5C4 20.95 4.45 20.5 5 20.5Z" fill="#1A1A1A"/>
<mask id="mask0" mask-type="alpha" maskUnits="userSpaceOnUse" x="4" y="2" width="16" height="21">
<path fill-rule="evenodd" clip-rule="evenodd" d="M11.9831 7.82287L6.36614 13.4399L6.10214 16.3959L9.07914 16.1249L14.6791 10.5189L11.9831 7.82287ZM17.9661 7.22887L15.2711 4.53487L13.3231 6.48287L16.0181 9.17887L17.9661 7.22887ZM5.09114 18.4959C5.06014 18.4989 5.03014 18.4999 5.00014 18.4999C4.73614 18.4999 4.48114 18.3959 4.29314 18.2069C4.08314 17.9969 3.97714 17.7049 4.00414 17.4099L4.38314 13.2389C4.42514 12.7819 4.62714 12.3509 4.95214 12.0259L13.9481 3.02887C14.6501 2.32487 15.9241 2.35987 16.6641 3.09887L19.4021 5.83687H19.4031C20.1691 6.60387 20.1991 7.82087 19.4711 8.55087L10.4741 17.5479C10.1491 17.8739 9.71914 18.0749 9.26114 18.1169L5.09114 18.4959ZM5 20.5H19C19.55 20.5 20 20.95 20 21.5C20 22.05 19.55 22.5 19 22.5H5C4.45 22.5 4 22.05 4 21.5C4 20.95 4.45 20.5 5 20.5Z" fill="white"/>
</mask>
<g mask="url(#mask0)">
<rect y="0.5" width="24" height="24" fill="#1A1A1A"/>
</g>
</svg>
