<svg width="22" height="24" viewBox="0 0 22 24" fill="none" xmlns="http://www.w3.org/2000/svg">
<path d="M13.25 1.515C13.19 1.125 12.89 -0.12 11.09 0.015C9.185 0.15 6.605 0.75 2 3.78V0.75C2 0.345 1.655 0 1.25 0C0.83 0 0.5 0.345 0.5 0.75V23.25C0.5 23.67 0.83 24 1.25 24C1.655 24 2 23.67 2 23.25V15.255C2.57 14.865 3.11 14.505 3.62 14.19C4.295 13.755 4.91 13.395 5.48 13.095C6.485 12.54 7.355 12.15 8.12 11.865C8.36 11.775 8.6 11.7 8.825 11.625C9.0635 11.55 9.2885 11.49 9.5 11.445C10.22 11.265 10.85 11.19 11.42 11.145C12.14 11.085 12.77 11.235 13.25 11.55C13.265 11.13 13.25 10.005 13.25 8.985V1.515Z" fill="black"/>
<path d="M21.1385 11.3551L17.3285 9.07505L21.362 3.43505C21.497 3.24005 21.542 2.98505 21.452 2.76005C21.392 2.56505 21.242 2.40005 21.047 2.31005C20.852 2.22005 20.642 2.23505 20.447 2.31005L14.747 4.80005V8.97005C14.747 9.94505 14.762 11.64 14.732 11.895C14.645 12.648 14.3885 13.4655 14.0315 14.292C13.7615 14.916 14.384 15.5491 15.0095 15.2806L21.0455 12.6901C21.3005 12.585 21.4805 12.33 21.4955 12.045C21.5135 11.775 21.3785 11.505 21.1385 11.3551Z" fill="black"/>
</svg>
