<svg width="14" height="24" viewBox="0 0 14 24" fill="none" xmlns="http://www.w3.org/2000/svg">
<path d="M13.25 1.515C13.19 1.125 12.89 -0.12 11.09 0.015C9.185 0.15 6.605 0.75 2 3.78V0.75C2 0.345 1.655 0 1.25 0C0.83 0 0.5 0.345 0.5 0.75V23.25C0.5 23.67 0.83 24 1.25 24C1.655 24 2 23.67 2 23.25V15.255C2.57 14.865 3.11 14.505 3.62 14.19C4.295 13.755 4.91 13.395 5.48 13.095C6.485 12.54 7.355 12.15 8.12 11.865C8.36 11.775 8.6 11.7 8.825 11.625C9.0635 11.55 9.2885 11.49 9.5 11.445C10.22 11.265 10.85 11.19 11.42 11.145C12.14 11.085 12.77 11.235 13.25 11.55C13.265 11.13 13.25 10.005 13.25 8.985V1.515Z" fill="#1A1A1A"/>
</svg>
