<svg width="24" height="25" viewBox="0 0 24 25" fill="none" xmlns="http://www.w3.org/2000/svg">
<path fill-rule="evenodd" clip-rule="evenodd" d="M10 16.5C10 17.05 9.55 17.5 9 17.5C8.45 17.5 8 17.05 8 16.5V12.5C8 11.95 8.45 11.5 9 11.5C9.55 11.5 10 11.95 10 12.5V16.5ZM16 16.5C16 17.05 15.55 17.5 15 17.5C14.45 17.5 14 17.05 14 16.5V12.5C14 11.95 14.45 11.5 15 11.5C15.55 11.5 16 11.95 16 12.5V16.5ZM18 19.5C18 20.051 17.552 20.5 17 20.5H7C6.448 20.5 6 20.051 6 19.5V8.5H18V19.5ZM10 4.828C10 4.673 10.214 4.5 10.5 4.5H13.5C13.786 4.5 14 4.673 14 4.828V6.5H10V4.828ZM21 6.5H20H16V4.828C16 3.544 14.879 2.5 13.5 2.5H10.5C9.121 2.5 8 3.544 8 4.828V6.5H4H3C2.45 6.5 2 6.95 2 7.5C2 8.05 2.45 8.5 3 8.5H4V19.5C4 21.154 5.346 22.5 7 22.5H17C18.654 22.5 20 21.154 20 19.5V8.5H21C21.55 8.5 22 8.05 22 7.5C22 6.95 21.55 6.5 21 6.5Z" fill="#1A1A1A"/>
<mask id="mask0" mask-type="alpha" maskUnits="userSpaceOnUse" x="2" y="2" width="20" height="21">
<path fill-rule="evenodd" clip-rule="evenodd" d="M10 16.5C10 17.05 9.55 17.5 9 17.5C8.45 17.5 8 17.05 8 16.5V12.5C8 11.95 8.45 11.5 9 11.5C9.55 11.5 10 11.95 10 12.5V16.5ZM16 16.5C16 17.05 15.55 17.5 15 17.5C14.45 17.5 14 17.05 14 16.5V12.5C14 11.95 14.45 11.5 15 11.5C15.55 11.5 16 11.95 16 12.5V16.5ZM18 19.5C18 20.051 17.552 20.5 17 20.5H7C6.448 20.5 6 20.051 6 19.5V8.5H18V19.5ZM10 4.828C10 4.673 10.214 4.5 10.5 4.5H13.5C13.786 4.5 14 4.673 14 4.828V6.5H10V4.828ZM21 6.5H20H16V4.828C16 3.544 14.879 2.5 13.5 2.5H10.5C9.121 2.5 8 3.544 8 4.828V6.5H4H3C2.45 6.5 2 6.95 2 7.5C2 8.05 2.45 8.5 3 8.5H4V19.5C4 21.154 5.346 22.5 7 22.5H17C18.654 22.5 20 21.154 20 19.5V8.5H21C21.55 8.5 22 8.05 22 7.5C22 6.95 21.55 6.5 21 6.5Z" fill="white"/>
</mask>
<g mask="url(#mask0)">
<rect y="0.5" width="24" height="24" fill="#1A1A1A"/>
</g>
</svg>
